<svg width="175" height="32" viewBox="0 0 175 32" fill="none" xmlns="http://www.w3.org/2000/svg">
<path d="M30.7112 32C31.2635 32 31.7146 31.5518 31.6785 31.0007C31.5694 29.3355 31.1881 27.6971 30.5478 26.1512C29.7797 24.2969 28.654 22.6121 27.2347 21.1929C25.8155 19.7736 24.1307 18.6479 22.2764 17.8798C20.4221 17.1117 18.4347 16.7164 16.4276 16.7164C14.4206 16.7164 12.4331 17.1117 10.5789 17.8798C8.72456 18.6479 7.03971 19.7736 5.6205 21.1929C4.20129 22.6121 3.07551 24.2969 2.30744 26.1512C1.66711 27.6971 1.28585 29.3355 1.17675 31.0007C1.14064 31.5518 1.59176 32 2.14404 32L16.4276 32H30.7112Z" fill="#F49D37"/>
<circle cx="6.15953" cy="5.49254" r="5.49254" fill="#F22B29"/>
<path d="M17.4277 0C16.8755 0 16.4243 0.448198 16.4604 0.999301C16.5695 2.66448 16.9508 4.30289 17.5911 5.84877C18.3592 7.70306 19.485 9.38791 20.9042 10.8071C22.3234 12.2263 24.0083 13.3521 25.8625 14.1202C27.4084 14.7605 29.0468 15.1418 30.712 15.2509C31.2631 15.287 31.7113 14.8359 31.7113 14.2836L31.7113 1C31.7113 0.447716 31.2636 0 30.7113 0H17.4277Z" fill="#140F2D"/>
<path d="M104.187 12.944C103.675 12.944 103.211 12.864 102.795 12.704C102.389 12.5333 102.037 12.288 101.739 11.968C101.451 11.6373 101.227 11.2427 101.067 10.784C100.907 10.3147 100.816 9.78134 100.795 9.18401C100.784 8.97068 100.779 8.78401 100.779 8.62401C100.779 8.45335 100.784 8.26668 100.795 8.06401C100.816 7.48801 100.907 6.97068 101.067 6.51201C101.227 6.05334 101.451 5.65868 101.739 5.32801C102.027 4.99734 102.379 4.74668 102.795 4.57601C103.211 4.39468 103.675 4.30401 104.187 4.30401C104.72 4.30401 105.179 4.39468 105.563 4.57601C105.947 4.74668 106.272 4.97068 106.539 5.24801V1.82401C106.539 1.70668 106.576 1.61068 106.651 1.53601C106.725 1.46134 106.821 1.42401 106.939 1.42401H108.891C108.997 1.42401 109.088 1.46134 109.163 1.53601C109.248 1.61068 109.291 1.70668 109.291 1.82401V12.384C109.291 12.5013 109.248 12.5973 109.163 12.672C109.088 12.7467 108.997 12.784 108.891 12.784H107.083C106.965 12.784 106.869 12.7467 106.795 12.672C106.72 12.5973 106.683 12.5013 106.683 12.384V11.872C106.427 12.1813 106.096 12.4373 105.691 12.64C105.285 12.8427 104.784 12.944 104.187 12.944ZM105.051 10.8C105.413 10.8 105.696 10.7253 105.899 10.576C106.112 10.416 106.267 10.2133 106.363 9.96801C106.469 9.72268 106.528 9.45601 106.539 9.16801C106.549 8.95468 106.555 8.75201 106.555 8.56001C106.555 8.36801 106.549 8.17068 106.539 7.96801C106.528 7.70135 106.469 7.45601 106.363 7.23201C106.256 6.99734 106.096 6.81068 105.883 6.67201C105.669 6.52268 105.392 6.44801 105.051 6.44801C104.699 6.44801 104.416 6.52268 104.203 6.67201C104 6.82134 103.856 7.02401 103.771 7.28001C103.685 7.53601 103.632 7.81868 103.611 8.12801C103.579 8.45868 103.579 8.78934 103.611 9.12001C103.632 9.42935 103.685 9.71201 103.771 9.96801C103.856 10.224 104 10.4267 104.203 10.576C104.416 10.7253 104.699 10.8 105.051 10.8Z" fill="#140F2D"/>
<path d="M94.1412 12.944C93.5652 12.944 93.0479 12.8373 92.5892 12.624C92.1412 12.4 91.7839 12.1014 91.5172 11.728C91.2505 11.3547 91.1172 10.9334 91.1172 10.464C91.1172 9.70668 91.4265 9.10935 92.0452 8.67202C92.6639 8.22402 93.4852 7.92002 94.5092 7.76002L96.5092 7.45602V7.23202C96.5092 6.84802 96.4292 6.55468 96.2692 6.35202C96.1092 6.14935 95.8159 6.04802 95.3892 6.04802C95.0905 6.04802 94.8452 6.10668 94.6532 6.22402C94.4719 6.34135 94.3279 6.50135 94.2212 6.70402C94.1252 6.84268 93.9919 6.91202 93.8212 6.91202H92.0292C91.9119 6.91202 91.8212 6.88002 91.7572 6.81602C91.6932 6.74135 91.6665 6.65602 91.6772 6.56002C91.6772 6.36802 91.7465 6.14935 91.8852 5.90402C92.0345 5.64802 92.2585 5.39735 92.5572 5.15202C92.8559 4.90668 93.2399 4.70402 93.7092 4.54402C94.1785 4.38402 94.7439 4.30402 95.4052 4.30402C96.0985 4.30402 96.6905 4.38402 97.1812 4.54402C97.6719 4.70402 98.0665 4.92802 98.3652 5.21602C98.6745 5.50402 98.9039 5.84535 99.0532 6.24002C99.2025 6.62402 99.2772 7.05068 99.2772 7.52002V12.384C99.2772 12.5014 99.2345 12.5974 99.1492 12.672C99.0745 12.7467 98.9839 12.784 98.8772 12.784H97.0212C96.9039 12.784 96.8079 12.7467 96.7332 12.672C96.6585 12.5974 96.6212 12.5014 96.6212 12.384V11.824C96.4825 12.0267 96.2959 12.2134 96.0612 12.384C95.8265 12.5547 95.5492 12.688 95.2292 12.784C94.9199 12.8907 94.5572 12.944 94.1412 12.944ZM94.8932 11.12C95.2025 11.12 95.4799 11.056 95.7252 10.928C95.9812 10.7894 96.1785 10.5814 96.3172 10.304C96.4665 10.016 96.5412 9.65868 96.5412 9.23202V9.00802L95.1812 9.24802C94.6799 9.33335 94.3119 9.46668 94.0772 9.64802C93.8532 9.81868 93.7412 10.0213 93.7412 10.256C93.7412 10.4374 93.7945 10.592 93.9012 10.72C94.0079 10.848 94.1465 10.9493 94.3172 11.024C94.4879 11.088 94.6799 11.12 94.8932 11.12Z" fill="#140F2D"/>
<path d="M86.6393 12.944C86.0419 12.944 85.5406 12.8427 85.1353 12.64C84.7406 12.4373 84.4153 12.1813 84.1593 11.872V12.384C84.1593 12.5013 84.1166 12.5973 84.0313 12.672C83.9566 12.7467 83.8659 12.784 83.7593 12.784H81.9513C81.8339 12.784 81.7379 12.7467 81.6633 12.672C81.5886 12.5973 81.5513 12.5013 81.5513 12.384V1.82401C81.5513 1.70668 81.5886 1.61068 81.6633 1.53601C81.7379 1.46134 81.8339 1.42401 81.9513 1.42401H83.9033C84.0206 1.42401 84.1166 1.46134 84.1913 1.53601C84.2659 1.61068 84.3033 1.70668 84.3033 1.82401V5.24801C84.5593 4.97068 84.8793 4.74668 85.2633 4.57601C85.6579 4.39468 86.1166 4.30401 86.6393 4.30401C87.1726 4.30401 87.6419 4.39468 88.0473 4.57601C88.4633 4.74668 88.8153 4.99734 89.1033 5.32801C89.3913 5.65868 89.6153 6.05334 89.7753 6.51201C89.9353 6.97068 90.0259 7.48801 90.0473 8.06401C90.0579 8.26668 90.0633 8.45335 90.0633 8.62401C90.0633 8.78401 90.0579 8.97068 90.0473 9.18401C90.0259 9.78134 89.9299 10.3147 89.7593 10.784C89.5993 11.2427 89.3753 11.6373 89.0873 11.968C88.7993 12.288 88.4526 12.5333 88.0473 12.704C87.6419 12.864 87.1726 12.944 86.6393 12.944ZM85.7753 10.8C86.1379 10.8 86.4206 10.7253 86.6233 10.576C86.8259 10.4267 86.9699 10.224 87.0553 9.96801C87.1513 9.71201 87.2099 9.42935 87.2313 9.12001C87.2526 8.78934 87.2526 8.45868 87.2313 8.12801C87.2099 7.81868 87.1513 7.53601 87.0553 7.28001C86.9699 7.02401 86.8259 6.82134 86.6233 6.67201C86.4206 6.52268 86.1379 6.44801 85.7753 6.44801C85.4446 6.44801 85.1726 6.52268 84.9593 6.67201C84.7459 6.81068 84.5859 6.99734 84.4793 7.23201C84.3726 7.45601 84.3139 7.70135 84.3033 7.96801C84.2926 8.17068 84.2873 8.36801 84.2873 8.56001C84.2873 8.75201 84.2926 8.95468 84.3033 9.16801C84.3139 9.45601 84.3673 9.72268 84.4633 9.96801C84.5593 10.2133 84.7139 10.416 84.9273 10.576C85.1406 10.7253 85.4233 10.8 85.7753 10.8Z" fill="#140F2D"/>
<path d="M76.1316 12.944C75.4383 12.944 74.8463 12.8694 74.3556 12.72C73.8756 12.56 73.4809 12.368 73.1716 12.144C72.8729 11.92 72.6489 11.6907 72.4996 11.456C72.3503 11.2107 72.2703 11.0027 72.2596 10.832C72.2489 10.7147 72.2863 10.6187 72.3716 10.544C72.4569 10.4587 72.5476 10.416 72.6436 10.416H74.4676C74.4996 10.416 74.5263 10.4213 74.5476 10.432C74.5689 10.4427 74.6009 10.464 74.6436 10.496C74.7823 10.5707 74.9209 10.6667 75.0596 10.784C75.1983 10.8907 75.3583 10.9867 75.5396 11.072C75.7209 11.1574 75.9396 11.2 76.1956 11.2C76.4943 11.2 76.7449 11.1413 76.9476 11.024C77.1503 10.9067 77.2516 10.7307 77.2516 10.496C77.2516 10.3253 77.2036 10.1867 77.1076 10.08C77.0116 9.96268 76.8143 9.85068 76.5156 9.74402C76.2276 9.63735 75.7903 9.53068 75.2036 9.42402C74.6489 9.29602 74.1636 9.13068 73.7476 8.92802C73.3316 8.71468 73.0116 8.44268 72.7876 8.11202C72.5636 7.77068 72.4516 7.36002 72.4516 6.88002C72.4516 6.45335 72.5903 6.04268 72.8676 5.64802C73.1449 5.25335 73.5503 4.93335 74.0836 4.68802C74.6169 4.43202 75.2729 4.30402 76.0516 4.30402C76.6703 4.30402 77.2036 4.37868 77.6516 4.52802C78.1103 4.66668 78.4943 4.84802 78.8036 5.07202C79.1236 5.29602 79.3636 5.52535 79.5236 5.76002C79.6836 5.99468 79.7689 6.20802 79.7796 6.40002C79.7903 6.50668 79.7583 6.60268 79.6836 6.68802C79.6089 6.76268 79.5236 6.80002 79.4276 6.80002H77.7636C77.7209 6.80002 77.6783 6.79468 77.6356 6.78402C77.5929 6.76268 77.5556 6.74135 77.5236 6.72002C77.3956 6.65602 77.2676 6.57068 77.1396 6.46402C77.0116 6.35735 76.8623 6.26135 76.6916 6.17602C76.5209 6.09068 76.3076 6.04802 76.0516 6.04802C75.7636 6.04802 75.5396 6.11202 75.3796 6.24002C75.2196 6.36802 75.1396 6.53335 75.1396 6.73602C75.1396 6.87468 75.1823 7.00268 75.2676 7.12002C75.3636 7.23735 75.5503 7.34402 75.8276 7.44002C76.1156 7.53602 76.5583 7.64268 77.1556 7.76002C77.8916 7.87735 78.4783 8.06935 78.9156 8.33602C79.3529 8.59202 79.6623 8.89602 79.8436 9.24802C80.0249 9.58935 80.1156 9.95202 80.1156 10.336C80.1156 10.848 79.9609 11.3013 79.6516 11.696C79.3529 12.0907 78.9049 12.4 78.3076 12.624C77.7103 12.8373 76.9849 12.944 76.1316 12.944Z" fill="#140F2D"/>
<path d="M68.5294 12.784C68.4121 12.784 68.3161 12.7467 68.2414 12.672C68.1667 12.5973 68.1294 12.5013 68.1294 12.384V1.82401C68.1294 1.70668 68.1667 1.61068 68.2414 1.53601C68.3161 1.46134 68.4121 1.42401 68.5294 1.42401H70.4174C70.5347 1.42401 70.6307 1.46134 70.7054 1.53601C70.7801 1.61068 70.8174 1.70668 70.8174 1.82401V12.384C70.8174 12.5013 70.7801 12.5973 70.7054 12.672C70.6307 12.7467 70.5347 12.784 70.4174 12.784H68.5294Z" fill="#140F2D"/>
<path d="M61.2638 12.784C61.1464 12.784 61.0504 12.7467 60.9758 12.672C60.9011 12.5974 60.8638 12.5014 60.8638 12.384V4.86402C60.8638 4.75735 60.9011 4.66669 60.9758 4.59202C61.0504 4.50669 61.1464 4.46402 61.2638 4.46402H63.1038C63.2211 4.46402 63.3171 4.50669 63.3918 4.59202C63.4664 4.66669 63.5038 4.75735 63.5038 4.86402V5.50402C63.7918 5.17335 64.1331 4.91735 64.5278 4.73602C64.9331 4.55469 65.3864 4.46402 65.8878 4.46402H66.5918C66.6984 4.46402 66.7891 4.50135 66.8638 4.57602C66.9491 4.65069 66.9918 4.74669 66.9918 4.86402V6.51202C66.9918 6.61869 66.9491 6.71469 66.8638 6.80002C66.7891 6.87469 66.6984 6.91202 66.5918 6.91202H65.0398C64.6024 6.91202 64.2611 7.03469 64.0158 7.28002C63.7811 7.51469 63.6638 7.85069 63.6638 8.28802V12.384C63.6638 12.5014 63.6211 12.5974 63.5358 12.672C63.4611 12.7467 63.3651 12.784 63.2478 12.784H61.2638Z" fill="#140F2D"/>
<path d="M53.9224 12.944C53.3464 12.944 52.8291 12.8373 52.3704 12.624C51.9224 12.4 51.5651 12.1014 51.2984 11.728C51.0318 11.3547 50.8984 10.9334 50.8984 10.464C50.8984 9.70668 51.2078 9.10935 51.8264 8.67202C52.4451 8.22402 53.2664 7.92002 54.2904 7.76002L56.2904 7.45602V7.23202C56.2904 6.84802 56.2104 6.55468 56.0504 6.35202C55.8904 6.14935 55.5971 6.04802 55.1704 6.04802C54.8718 6.04802 54.6264 6.10668 54.4344 6.22402C54.2531 6.34135 54.1091 6.50135 54.0024 6.70402C53.9064 6.84268 53.7731 6.91202 53.6024 6.91202H51.8104C51.6931 6.91202 51.6024 6.88002 51.5384 6.81602C51.4744 6.74135 51.4478 6.65602 51.4584 6.56002C51.4584 6.36802 51.5278 6.14935 51.6664 5.90402C51.8158 5.64802 52.0398 5.39735 52.3384 5.15202C52.6371 4.90668 53.0211 4.70402 53.4904 4.54402C53.9598 4.38402 54.5251 4.30402 55.1864 4.30402C55.8798 4.30402 56.4718 4.38402 56.9624 4.54402C57.4531 4.70402 57.8478 4.92802 58.1464 5.21602C58.4558 5.50402 58.6851 5.84535 58.8344 6.24002C58.9838 6.62402 59.0584 7.05068 59.0584 7.52002V12.384C59.0584 12.5014 59.0158 12.5974 58.9304 12.672C58.8558 12.7467 58.7651 12.784 58.6584 12.784H56.8024C56.6851 12.784 56.5891 12.7467 56.5144 12.672C56.4398 12.5974 56.4024 12.5014 56.4024 12.384V11.824C56.2638 12.0267 56.0771 12.2134 55.8424 12.384C55.6078 12.5547 55.3304 12.688 55.0104 12.784C54.7011 12.8907 54.3384 12.944 53.9224 12.944ZM54.6744 11.12C54.9838 11.12 55.2611 11.056 55.5064 10.928C55.7624 10.7894 55.9598 10.5814 56.0984 10.304C56.2478 10.016 56.3224 9.65868 56.3224 9.23202V9.00802L54.9624 9.24802C54.4611 9.33335 54.0931 9.46668 53.8584 9.64802C53.6344 9.81868 53.5224 10.0213 53.5224 10.256C53.5224 10.4374 53.5758 10.592 53.6824 10.72C53.7891 10.848 53.9278 10.9493 54.0984 11.024C54.2691 11.088 54.4611 11.12 54.6744 11.12Z" fill="#140F2D"/>
<path d="M44.96 12.944C43.9467 12.944 43.0773 12.7787 42.352 12.448C41.6373 12.1173 41.0773 11.632 40.672 10.992C40.2773 10.352 40.0587 9.55734 40.016 8.60801C40.0053 8.17068 40 7.70135 40 7.20001C40 6.69868 40.0053 6.21868 40.016 5.76001C40.0587 4.83201 40.2827 4.04801 40.688 3.40801C41.0933 2.75734 41.6587 2.26668 42.384 1.93601C43.1093 1.59468 43.968 1.42401 44.96 1.42401C45.664 1.42401 46.3147 1.51468 46.912 1.69601C47.5093 1.86668 48.032 2.12268 48.48 2.46401C48.928 2.79468 49.2747 3.20001 49.52 3.68001C49.776 4.14934 49.9093 4.68268 49.92 5.28001C49.9307 5.37601 49.8987 5.45601 49.824 5.52001C49.76 5.58401 49.68 5.61601 49.584 5.61601H47.424C47.2853 5.61601 47.1787 5.58934 47.104 5.53601C47.0293 5.47201 46.9653 5.36001 46.912 5.20001C46.7627 4.63468 46.5173 4.25068 46.176 4.04801C45.8453 3.83468 45.4347 3.72801 44.944 3.72801C44.3573 3.72801 43.8933 3.89334 43.552 4.22401C43.2107 4.54401 43.024 5.08268 42.992 5.84001C42.96 6.71468 42.96 7.61068 42.992 8.52801C43.024 9.28534 43.2107 9.82934 43.552 10.16C43.8933 10.48 44.3573 10.64 44.944 10.64C45.4347 10.64 45.8507 10.5333 46.192 10.32C46.5333 10.1067 46.7733 9.72268 46.912 9.16801C46.9547 9.00801 47.0133 8.90135 47.088 8.84801C47.1733 8.78401 47.2853 8.75201 47.424 8.75201H49.584C49.68 8.75201 49.76 8.78401 49.824 8.84801C49.8987 8.91201 49.9307 8.99201 49.92 9.08801C49.9093 9.68534 49.776 10.224 49.52 10.704C49.2747 11.1733 48.928 11.5787 48.48 11.92C48.032 12.2507 47.5093 12.5067 46.912 12.688C46.3147 12.8587 45.664 12.944 44.96 12.944Z" fill="#140F2D"/>
<path d="M173.145 30.416C173.038 30.416 172.948 30.384 172.873 30.32C172.809 30.2454 172.777 30.1547 172.777 30.048V19.424C172.777 19.3174 172.809 19.232 172.873 19.168C172.948 19.0934 173.038 19.056 173.145 19.056H173.897C174.014 19.056 174.105 19.0934 174.169 19.168C174.233 19.232 174.265 19.3174 174.265 19.424V30.048C174.265 30.1547 174.233 30.2454 174.169 30.32C174.105 30.384 174.014 30.416 173.897 30.416H173.145Z" fill="#140F2D"/>
<path d="M166.981 30.576C166.17 30.576 165.493 30.4214 164.949 30.112C164.405 29.8027 163.989 29.376 163.701 28.832C163.413 28.2774 163.253 27.648 163.221 26.944C163.21 26.7627 163.205 26.5334 163.205 26.256C163.205 25.968 163.21 25.7387 163.221 25.568C163.253 24.8534 163.413 24.224 163.701 23.68C164 23.136 164.421 22.7094 164.965 22.4C165.509 22.0907 166.181 21.936 166.981 21.936C167.781 21.936 168.453 22.0907 168.997 22.4C169.541 22.7094 169.957 23.136 170.245 23.68C170.544 24.224 170.709 24.8534 170.741 25.568C170.752 25.7387 170.757 25.968 170.757 26.256C170.757 26.5334 170.752 26.7627 170.741 26.944C170.709 27.648 170.549 28.2774 170.261 28.832C169.973 29.376 169.557 29.8027 169.013 30.112C168.469 30.4214 167.792 30.576 166.981 30.576ZM166.981 29.344C167.642 29.344 168.17 29.136 168.565 28.72C168.96 28.2934 169.173 27.6747 169.205 26.864C169.216 26.704 169.221 26.5014 169.221 26.256C169.221 26.0107 169.216 25.808 169.205 25.648C169.173 24.8374 168.96 24.224 168.565 23.808C168.17 23.3814 167.642 23.168 166.981 23.168C166.32 23.168 165.786 23.3814 165.381 23.808C164.986 24.224 164.778 24.8374 164.757 25.648C164.746 25.808 164.741 26.0107 164.741 26.256C164.741 26.5014 164.746 26.704 164.757 26.864C164.778 27.6747 164.986 28.2934 165.381 28.72C165.786 29.136 166.32 29.344 166.981 29.344Z" fill="#140F2D"/>
<path d="M157.794 30.576C156.983 30.576 156.306 30.4214 155.762 30.112C155.218 29.8027 154.802 29.376 154.514 28.832C154.226 28.2774 154.066 27.648 154.034 26.944C154.023 26.7627 154.018 26.5334 154.018 26.256C154.018 25.968 154.023 25.7387 154.034 25.568C154.066 24.8534 154.226 24.224 154.514 23.68C154.812 23.136 155.234 22.7094 155.778 22.4C156.322 22.0907 156.994 21.936 157.794 21.936C158.594 21.936 159.266 22.0907 159.81 22.4C160.354 22.7094 160.77 23.136 161.058 23.68C161.356 24.224 161.522 24.8534 161.554 25.568C161.564 25.7387 161.57 25.968 161.57 26.256C161.57 26.5334 161.564 26.7627 161.554 26.944C161.522 27.648 161.362 28.2774 161.074 28.832C160.786 29.376 160.37 29.8027 159.826 30.112C159.282 30.4214 158.604 30.576 157.794 30.576ZM157.794 29.344C158.455 29.344 158.983 29.136 159.378 28.72C159.772 28.2934 159.986 27.6747 160.018 26.864C160.028 26.704 160.034 26.5014 160.034 26.256C160.034 26.0107 160.028 25.808 160.018 25.648C159.986 24.8374 159.772 24.224 159.378 23.808C158.983 23.3814 158.455 23.168 157.794 23.168C157.132 23.168 156.599 23.3814 156.194 23.808C155.799 24.224 155.591 24.8374 155.57 25.648C155.559 25.808 155.554 26.0107 155.554 26.256C155.554 26.5014 155.559 26.704 155.57 26.864C155.591 27.6747 155.799 28.2934 156.194 28.72C156.599 29.136 157.132 29.344 157.794 29.344Z" fill="#140F2D"/>
<path d="M145.02 30.416C144.913 30.416 144.823 30.384 144.748 30.32C144.684 30.2454 144.652 30.1547 144.652 30.048V19.424C144.652 19.3174 144.684 19.232 144.748 19.168C144.823 19.0934 144.913 19.056 145.02 19.056H145.82C145.937 19.056 146.028 19.0934 146.092 19.168C146.156 19.232 146.188 19.3174 146.188 19.424V23.152C146.476 22.7894 146.828 22.496 147.244 22.272C147.66 22.048 148.188 21.936 148.828 21.936C149.521 21.936 150.108 22.0907 150.588 22.4C151.079 22.6987 151.447 23.12 151.692 23.664C151.948 24.1974 152.076 24.8214 152.076 25.536V30.048C152.076 30.1547 152.044 30.2454 151.98 30.32C151.916 30.384 151.825 30.416 151.708 30.416H150.908C150.801 30.416 150.711 30.384 150.636 30.32C150.572 30.2454 150.54 30.1547 150.54 30.048V25.616C150.54 24.8694 150.359 24.288 149.996 23.872C149.633 23.4454 149.1 23.232 148.396 23.232C147.735 23.232 147.201 23.4454 146.796 23.872C146.391 24.288 146.188 24.8694 146.188 25.616V30.048C146.188 30.1547 146.156 30.2454 146.092 30.32C146.028 30.384 145.937 30.416 145.82 30.416H145.02Z" fill="#140F2D"/>
<path d="M139.167 30.576C138.41 30.576 137.754 30.432 137.199 30.144C136.655 29.8454 136.234 29.424 135.935 28.88C135.637 28.3254 135.477 27.664 135.455 26.896C135.445 26.736 135.439 26.5227 135.439 26.256C135.439 25.9894 135.445 25.776 135.455 25.616C135.477 24.848 135.637 24.192 135.935 23.648C136.234 23.0934 136.655 22.672 137.199 22.384C137.754 22.0854 138.41 21.936 139.167 21.936C139.786 21.936 140.314 22.0214 140.751 22.192C141.199 22.3627 141.567 22.5814 141.855 22.848C142.143 23.1147 142.357 23.4027 142.495 23.712C142.645 24.0214 142.725 24.3147 142.735 24.592C142.746 24.6987 142.714 24.784 142.639 24.848C142.565 24.912 142.474 24.944 142.367 24.944H141.599C141.493 24.944 141.413 24.9227 141.359 24.88C141.306 24.8267 141.253 24.7414 141.199 24.624C141.007 24.1014 140.746 23.7334 140.415 23.52C140.085 23.3067 139.674 23.2 139.183 23.2C138.543 23.2 138.021 23.3974 137.615 23.792C137.221 24.1867 137.007 24.8214 136.975 25.696C136.965 26.08 136.965 26.4534 136.975 26.816C137.007 27.7014 137.221 28.3414 137.615 28.736C138.021 29.12 138.543 29.312 139.183 29.312C139.674 29.312 140.085 29.2054 140.415 28.992C140.746 28.7787 141.007 28.4107 141.199 27.888C141.253 27.7707 141.306 27.6907 141.359 27.648C141.413 27.5947 141.493 27.568 141.599 27.568H142.367C142.474 27.568 142.565 27.6 142.639 27.664C142.714 27.728 142.746 27.8134 142.735 27.92C142.725 28.144 142.677 28.3734 142.591 28.608C142.506 28.8427 142.367 29.0827 142.175 29.328C141.994 29.5627 141.765 29.776 141.487 29.968C141.21 30.1494 140.874 30.2987 140.479 30.416C140.095 30.5227 139.658 30.576 139.167 30.576Z" fill="#140F2D"/>
<path d="M129.662 30.576C128.734 30.576 127.956 30.4374 127.326 30.16C126.697 29.872 126.212 29.504 125.87 29.056C125.54 28.5974 125.364 28.112 125.342 27.6C125.342 27.5147 125.374 27.44 125.438 27.376C125.513 27.3014 125.598 27.264 125.694 27.264H126.51C126.638 27.264 126.734 27.296 126.798 27.36C126.862 27.424 126.905 27.4987 126.926 27.584C126.98 27.84 127.108 28.096 127.31 28.352C127.524 28.5974 127.817 28.8054 128.19 28.976C128.574 29.136 129.065 29.216 129.662 29.216C130.58 29.216 131.252 29.056 131.678 28.736C132.116 28.4054 132.334 27.968 132.334 27.424C132.334 27.0507 132.217 26.752 131.982 26.528C131.758 26.2934 131.412 26.0854 130.942 25.904C130.473 25.7227 129.865 25.5254 129.118 25.312C128.34 25.088 127.694 24.8427 127.182 24.576C126.67 24.3094 126.286 23.9787 126.03 23.584C125.785 23.1894 125.662 22.688 125.662 22.08C125.662 21.504 125.817 20.992 126.126 20.544C126.436 20.0854 126.878 19.7227 127.454 19.456C128.041 19.1894 128.75 19.056 129.582 19.056C130.244 19.056 130.82 19.1467 131.31 19.328C131.812 19.4987 132.228 19.7334 132.558 20.032C132.889 20.32 133.14 20.6347 133.31 20.976C133.481 21.3067 133.572 21.632 133.582 21.952C133.582 22.0267 133.556 22.1014 133.502 22.176C133.449 22.24 133.364 22.272 133.246 22.272H132.398C132.324 22.272 132.244 22.2507 132.158 22.208C132.084 22.1654 132.025 22.0854 131.982 21.968C131.918 21.5307 131.673 21.1627 131.246 20.864C130.82 20.5654 130.265 20.416 129.582 20.416C128.889 20.416 128.324 20.5494 127.886 20.816C127.46 21.0827 127.246 21.4987 127.246 22.064C127.246 22.4267 127.348 22.7307 127.55 22.976C127.753 23.2107 128.073 23.4187 128.51 23.6C128.948 23.7814 129.518 23.9734 130.222 24.176C131.076 24.4107 131.774 24.6614 132.318 24.928C132.862 25.184 133.262 25.5094 133.518 25.904C133.785 26.288 133.918 26.784 133.918 27.392C133.918 28.064 133.742 28.64 133.39 29.12C133.038 29.5894 132.542 29.952 131.902 30.208C131.273 30.4534 130.526 30.576 129.662 30.576Z" fill="#140F2D"/>
<path d="M118.426 30.416C118.319 30.416 118.228 30.384 118.154 30.32C118.09 30.2454 118.058 30.1547 118.058 30.048V22.464C118.058 22.3574 118.09 22.272 118.154 22.208C118.228 22.1334 118.319 22.096 118.426 22.096H119.194C119.3 22.096 119.386 22.1334 119.45 22.208C119.514 22.272 119.546 22.3574 119.546 22.464V30.048C119.546 30.1547 119.514 30.2454 119.45 30.32C119.386 30.384 119.3 30.416 119.194 30.416H118.426ZM118.298 20.544C118.191 20.544 118.1 20.512 118.026 20.448C117.962 20.3734 117.93 20.2827 117.93 20.176V19.312C117.93 19.2054 117.962 19.12 118.026 19.056C118.1 18.9814 118.191 18.944 118.298 18.944H119.306C119.412 18.944 119.498 18.9814 119.562 19.056C119.636 19.12 119.674 19.2054 119.674 19.312V20.176C119.674 20.2827 119.636 20.3734 119.562 20.448C119.498 20.512 119.412 20.544 119.306 20.544H118.298Z" fill="#140F2D"/>
<path d="M112.347 30.416C112.241 30.416 112.15 30.384 112.075 30.32C112.011 30.2454 111.979 30.1547 111.979 30.048V22.48C111.979 22.3734 112.011 22.2827 112.075 22.208C112.15 22.1334 112.241 22.096 112.347 22.096H113.083C113.19 22.096 113.281 22.1334 113.355 22.208C113.43 22.2827 113.467 22.3734 113.467 22.48V23.184C113.681 22.8214 113.974 22.5494 114.347 22.368C114.721 22.1867 115.169 22.096 115.691 22.096H116.331C116.438 22.096 116.523 22.1334 116.587 22.208C116.651 22.272 116.683 22.3574 116.683 22.464V23.12C116.683 23.2267 116.651 23.312 116.587 23.376C116.523 23.44 116.438 23.472 116.331 23.472H115.371C114.795 23.472 114.342 23.6427 114.011 23.984C113.681 24.3147 113.515 24.768 113.515 25.344V30.048C113.515 30.1547 113.478 30.2454 113.403 30.32C113.329 30.384 113.238 30.416 113.131 30.416H112.347Z" fill="#140F2D"/>
<path d="M106.2 30.576C105.389 30.576 104.712 30.4214 104.168 30.112C103.624 29.8027 103.208 29.376 102.92 28.832C102.632 28.2774 102.472 27.648 102.44 26.944C102.429 26.7627 102.424 26.5334 102.424 26.256C102.424 25.968 102.429 25.7387 102.44 25.568C102.472 24.8534 102.632 24.224 102.92 23.68C103.218 23.136 103.64 22.7094 104.184 22.4C104.728 22.0907 105.4 21.936 106.2 21.936C107 21.936 107.672 22.0907 108.216 22.4C108.76 22.7094 109.176 23.136 109.464 23.68C109.762 24.224 109.928 24.8534 109.96 25.568C109.97 25.7387 109.976 25.968 109.976 26.256C109.976 26.5334 109.97 26.7627 109.96 26.944C109.928 27.648 109.768 28.2774 109.48 28.832C109.192 29.376 108.776 29.8027 108.232 30.112C107.688 30.4214 107.01 30.576 106.2 30.576ZM106.2 29.344C106.861 29.344 107.389 29.136 107.784 28.72C108.178 28.2934 108.392 27.6747 108.424 26.864C108.434 26.704 108.44 26.5014 108.44 26.256C108.44 26.0107 108.434 25.808 108.424 25.648C108.392 24.8374 108.178 24.224 107.784 23.808C107.389 23.3814 106.861 23.168 106.2 23.168C105.538 23.168 105.005 23.3814 104.6 23.808C104.205 24.224 103.997 24.8374 103.976 25.648C103.965 25.808 103.96 26.0107 103.96 26.256C103.96 26.5014 103.965 26.704 103.976 26.864C103.997 27.6747 104.205 28.2934 104.6 28.72C105.005 29.136 105.538 29.344 106.2 29.344Z" fill="#140F2D"/>
<path d="M97.5158 30.576C96.9185 30.576 96.4065 30.5014 95.9798 30.352C95.5532 30.2027 95.2065 30.0214 94.9398 29.808C94.6732 29.5947 94.4705 29.3814 94.3318 29.168C94.2038 28.9547 94.1345 28.784 94.1238 28.656C94.1132 28.5387 94.1505 28.448 94.2358 28.384C94.3212 28.32 94.4065 28.288 94.4918 28.288H95.1958C95.2598 28.288 95.3078 28.2987 95.3398 28.32C95.3825 28.3307 95.4358 28.3734 95.4998 28.448C95.6385 28.5974 95.7932 28.7467 95.9638 28.896C96.1345 29.0454 96.3425 29.168 96.5878 29.264C96.8438 29.36 97.1585 29.408 97.5318 29.408C98.0758 29.408 98.5238 29.3067 98.8758 29.104C99.2278 28.8907 99.4038 28.5814 99.4038 28.176C99.4038 27.9094 99.3292 27.696 99.1798 27.536C99.0412 27.376 98.7852 27.232 98.4118 27.104C98.0492 26.976 97.5478 26.8427 96.9078 26.704C96.2678 26.5547 95.7612 26.3734 95.3878 26.16C95.0145 25.936 94.7478 25.6747 94.5878 25.376C94.4278 25.0667 94.3478 24.72 94.3478 24.336C94.3478 23.9414 94.4652 23.5627 94.6998 23.2C94.9345 22.8267 95.2758 22.5227 95.7238 22.288C96.1825 22.0534 96.7532 21.936 97.4358 21.936C97.9905 21.936 98.4652 22.0054 98.8598 22.144C99.2545 22.2827 99.5798 22.4587 99.8358 22.672C100.092 22.8747 100.284 23.0774 100.412 23.28C100.54 23.4827 100.609 23.6534 100.62 23.792C100.631 23.8987 100.599 23.9894 100.524 24.064C100.449 24.128 100.364 24.16 100.268 24.16H99.5958C99.5212 24.16 99.4572 24.144 99.4038 24.112C99.3612 24.08 99.3185 24.0427 99.2758 24C99.1692 23.8614 99.0412 23.7227 98.8918 23.584C98.7532 23.4454 98.5665 23.3334 98.3318 23.248C98.1078 23.152 97.8092 23.104 97.4358 23.104C96.9025 23.104 96.5025 23.216 96.2358 23.44C95.9692 23.664 95.8358 23.9467 95.8358 24.288C95.8358 24.4907 95.8945 24.672 96.0118 24.832C96.1292 24.992 96.3532 25.136 96.6838 25.264C97.0145 25.392 97.5052 25.5307 98.1558 25.68C98.8598 25.8187 99.4145 26.0054 99.8198 26.24C100.225 26.4747 100.513 26.7467 100.684 27.056C100.855 27.3654 100.94 27.7227 100.94 28.128C100.94 28.576 100.807 28.9867 100.54 29.36C100.284 29.7334 99.8998 30.032 99.3878 30.256C98.8865 30.4694 98.2625 30.576 97.5158 30.576Z" fill="#140F2D"/>
<path d="M89.3596 30.576C88.7623 30.576 88.2503 30.5014 87.8236 30.352C87.3969 30.2027 87.0503 30.0214 86.7836 29.808C86.5169 29.5947 86.3143 29.3814 86.1756 29.168C86.0476 28.9547 85.9783 28.784 85.9676 28.656C85.9569 28.5387 85.9943 28.448 86.0796 28.384C86.1649 28.32 86.2503 28.288 86.3356 28.288H87.0396C87.1036 28.288 87.1516 28.2987 87.1836 28.32C87.2263 28.3307 87.2796 28.3734 87.3436 28.448C87.4823 28.5974 87.6369 28.7467 87.8076 28.896C87.9783 29.0454 88.1863 29.168 88.4316 29.264C88.6876 29.36 89.0023 29.408 89.3756 29.408C89.9196 29.408 90.3676 29.3067 90.7196 29.104C91.0716 28.8907 91.2476 28.5814 91.2476 28.176C91.2476 27.9094 91.1729 27.696 91.0236 27.536C90.8849 27.376 90.6289 27.232 90.2556 27.104C89.8929 26.976 89.3916 26.8427 88.7516 26.704C88.1116 26.5547 87.6049 26.3734 87.2316 26.16C86.8583 25.936 86.5916 25.6747 86.4316 25.376C86.2716 25.0667 86.1916 24.72 86.1916 24.336C86.1916 23.9414 86.3089 23.5627 86.5436 23.2C86.7783 22.8267 87.1196 22.5227 87.5676 22.288C88.0263 22.0534 88.5969 21.936 89.2796 21.936C89.8343 21.936 90.3089 22.0054 90.7036 22.144C91.0983 22.2827 91.4236 22.4587 91.6796 22.672C91.9356 22.8747 92.1276 23.0774 92.2556 23.28C92.3836 23.4827 92.4529 23.6534 92.4636 23.792C92.4743 23.8987 92.4423 23.9894 92.3676 24.064C92.2929 24.128 92.2076 24.16 92.1116 24.16H91.4396C91.3649 24.16 91.3009 24.144 91.2476 24.112C91.2049 24.08 91.1623 24.0427 91.1196 24C91.0129 23.8614 90.8849 23.7227 90.7356 23.584C90.5969 23.4454 90.4103 23.3334 90.1756 23.248C89.9516 23.152 89.6529 23.104 89.2796 23.104C88.7463 23.104 88.3463 23.216 88.0796 23.44C87.8129 23.664 87.6796 23.9467 87.6796 24.288C87.6796 24.4907 87.7383 24.672 87.8556 24.832C87.9729 24.992 88.1969 25.136 88.5276 25.264C88.8583 25.392 89.3489 25.5307 89.9996 25.68C90.7036 25.8187 91.2583 26.0054 91.6636 26.24C92.0689 26.4747 92.3569 26.7467 92.5276 27.056C92.6983 27.3654 92.7836 27.7227 92.7836 28.128C92.7836 28.576 92.6503 28.9867 92.3836 29.36C92.1276 29.7334 91.7436 30.032 91.2316 30.256C90.7303 30.4694 90.1063 30.576 89.3596 30.576Z" fill="#140F2D"/>
<path d="M80.8385 30.576C79.7398 30.576 78.8651 30.24 78.2145 29.568C77.5638 28.8854 77.2065 27.9574 77.1425 26.784C77.1318 26.6454 77.1265 26.4694 77.1265 26.256C77.1265 26.032 77.1318 25.8507 77.1425 25.712C77.1851 24.9547 77.3611 24.2934 77.6705 23.728C77.9798 23.152 78.4011 22.7094 78.9345 22.4C79.4785 22.0907 80.1131 21.936 80.8385 21.936C81.6491 21.936 82.3265 22.1067 82.8705 22.448C83.4251 22.7894 83.8465 23.2747 84.1345 23.904C84.4225 24.5334 84.5665 25.2694 84.5665 26.112V26.384C84.5665 26.5014 84.5291 26.592 84.4545 26.656C84.3905 26.72 84.3051 26.752 84.1985 26.752H78.6625C78.6625 26.7627 78.6625 26.784 78.6625 26.816C78.6625 26.848 78.6625 26.8747 78.6625 26.896C78.6838 27.3334 78.7798 27.744 78.9505 28.128C79.1211 28.5014 79.3665 28.8054 79.6865 29.04C80.0065 29.2747 80.3905 29.392 80.8385 29.392C81.2225 29.392 81.5425 29.3334 81.7985 29.216C82.0545 29.0987 82.2625 28.9707 82.4225 28.832C82.5825 28.6827 82.6891 28.5707 82.7425 28.496C82.8385 28.3574 82.9131 28.2774 82.9665 28.256C83.0198 28.224 83.1051 28.208 83.2225 28.208H83.9905C84.0971 28.208 84.1825 28.24 84.2465 28.304C84.3211 28.3574 84.3531 28.4374 84.3425 28.544C84.3318 28.704 84.2465 28.9014 84.0865 29.136C83.9265 29.36 83.6971 29.584 83.3985 29.808C83.0998 30.032 82.7371 30.2187 82.3105 30.368C81.8838 30.5067 81.3931 30.576 80.8385 30.576ZM78.6625 25.648H83.0465V25.6C83.0465 25.12 82.9558 24.6934 82.7745 24.32C82.6038 23.9467 82.3531 23.6534 82.0225 23.44C81.6918 23.216 81.2971 23.104 80.8385 23.104C80.3798 23.104 79.9851 23.216 79.6545 23.44C79.3345 23.6534 79.0891 23.9467 78.9185 24.32C78.7478 24.6934 78.6625 25.12 78.6625 25.6V25.648Z" fill="#140F2D"/>
<path d="M74.5244 30.416C73.927 30.416 73.4417 30.304 73.0684 30.08C72.695 29.8454 72.423 29.52 72.2524 29.104C72.0817 28.6774 71.9964 28.176 71.9964 27.6V23.376H70.7484C70.6417 23.376 70.551 23.344 70.4764 23.28C70.4124 23.2054 70.3804 23.1147 70.3804 23.008V22.464C70.3804 22.3574 70.4124 22.272 70.4764 22.208C70.551 22.1334 70.6417 22.096 70.7484 22.096H71.9964V19.424C71.9964 19.3174 72.0284 19.232 72.0924 19.168C72.167 19.0934 72.2577 19.056 72.3644 19.056H73.1164C73.223 19.056 73.3084 19.0934 73.3724 19.168C73.447 19.232 73.4844 19.3174 73.4844 19.424V22.096H75.4684C75.575 22.096 75.6604 22.1334 75.7244 22.208C75.799 22.272 75.8364 22.3574 75.8364 22.464V23.008C75.8364 23.1147 75.799 23.2054 75.7244 23.28C75.6604 23.344 75.575 23.376 75.4684 23.376H73.4844V27.488C73.4844 27.9894 73.5697 28.384 73.7404 28.672C73.911 28.96 74.215 29.104 74.6524 29.104H75.6284C75.735 29.104 75.8204 29.1414 75.8844 29.216C75.959 29.28 75.9964 29.3654 75.9964 29.472V30.048C75.9964 30.1547 75.959 30.2454 75.8844 30.32C75.8204 30.384 75.735 30.416 75.6284 30.416H74.5244Z" fill="#140F2D"/>
<path d="M62.0506 30.416C61.944 30.416 61.8533 30.384 61.7786 30.32C61.7146 30.2454 61.6826 30.1547 61.6826 30.048V22.464C61.6826 22.3574 61.7146 22.272 61.7786 22.208C61.8533 22.1334 61.944 22.096 62.0506 22.096H62.8026C62.9093 22.096 62.9946 22.1334 63.0586 22.208C63.1333 22.272 63.1706 22.3574 63.1706 22.464V23.168C63.448 22.8054 63.7946 22.512 64.2106 22.288C64.6373 22.0534 65.1813 21.936 65.8426 21.936C66.536 21.936 67.1226 22.0907 67.6026 22.4C68.0933 22.6987 68.4613 23.12 68.7066 23.664C68.952 24.1974 69.0746 24.8214 69.0746 25.536V30.048C69.0746 30.1547 69.0426 30.2454 68.9786 30.32C68.9146 30.384 68.8293 30.416 68.7226 30.416H67.9226C67.816 30.416 67.7253 30.384 67.6506 30.32C67.5866 30.2454 67.5546 30.1547 67.5546 30.048V25.616C67.5546 24.8694 67.3733 24.288 67.0106 23.872C66.648 23.4454 66.1146 23.232 65.4106 23.232C64.7493 23.232 64.216 23.4454 63.8106 23.872C63.416 24.288 63.2186 24.8694 63.2186 25.616V30.048C63.2186 30.1547 63.1813 30.2454 63.1066 30.32C63.0426 30.384 62.9573 30.416 62.8506 30.416H62.0506Z" fill="#140F2D"/>
<path d="M55.903 30.576C55.0923 30.576 54.415 30.4214 53.871 30.112C53.327 29.8027 52.911 29.376 52.623 28.832C52.335 28.2774 52.175 27.648 52.143 26.944C52.1323 26.7627 52.127 26.5334 52.127 26.256C52.127 25.968 52.1323 25.7387 52.143 25.568C52.175 24.8534 52.335 24.224 52.623 23.68C52.9216 23.136 53.343 22.7094 53.887 22.4C54.431 22.0907 55.103 21.936 55.903 21.936C56.703 21.936 57.375 22.0907 57.919 22.4C58.463 22.7094 58.879 23.136 59.167 23.68C59.4656 24.224 59.631 24.8534 59.663 25.568C59.6736 25.7387 59.679 25.968 59.679 26.256C59.679 26.5334 59.6736 26.7627 59.663 26.944C59.631 27.648 59.471 28.2774 59.183 28.832C58.895 29.376 58.479 29.8027 57.935 30.112C57.391 30.4214 56.7136 30.576 55.903 30.576ZM55.903 29.344C56.5643 29.344 57.0923 29.136 57.487 28.72C57.8816 28.2934 58.095 27.6747 58.127 26.864C58.1376 26.704 58.143 26.5014 58.143 26.256C58.143 26.0107 58.1376 25.808 58.127 25.648C58.095 24.8374 57.8816 24.224 57.487 23.808C57.0923 23.3814 56.5643 23.168 55.903 23.168C55.2416 23.168 54.7083 23.3814 54.303 23.808C53.9083 24.224 53.7003 24.8374 53.679 25.648C53.6683 25.808 53.663 26.0107 53.663 26.256C53.663 26.5014 53.6683 26.704 53.679 26.864C53.7003 27.6747 53.9083 28.2934 54.303 28.72C54.7083 29.136 55.2416 29.344 55.903 29.344Z" fill="#140F2D"/>
<path d="M40.368 30.416C40.2613 30.416 40.1707 30.384 40.096 30.32C40.032 30.2454 40 30.1547 40 30.048V19.6C40 19.4827 40.032 19.392 40.096 19.328C40.1707 19.2534 40.2613 19.216 40.368 19.216H41.168C41.296 19.216 41.392 19.248 41.456 19.312C41.52 19.376 41.5573 19.4294 41.568 19.472L44.96 25.936L48.368 19.472C48.3893 19.4294 48.4267 19.376 48.48 19.312C48.544 19.248 48.64 19.216 48.768 19.216H49.552C49.6693 19.216 49.76 19.2534 49.824 19.328C49.8987 19.392 49.936 19.4827 49.936 19.6V30.048C49.936 30.1547 49.8987 30.2454 49.824 30.32C49.76 30.384 49.6693 30.416 49.552 30.416H48.768C48.6613 30.416 48.5707 30.384 48.496 30.32C48.432 30.2454 48.4 30.1547 48.4 30.048V22.176L45.728 27.392C45.6853 27.4987 45.6213 27.584 45.536 27.648C45.4507 27.7014 45.344 27.728 45.216 27.728H44.72C44.5813 27.728 44.4693 27.7014 44.384 27.648C44.3093 27.584 44.2453 27.4987 44.192 27.392L41.52 22.176V30.048C41.52 30.1547 41.4827 30.2454 41.408 30.32C41.344 30.384 41.2587 30.416 41.152 30.416H40.368Z" fill="#140F2D"/>
</svg>
